# WaveFront *.obj file (generated by Autodesk ATF)

mtllib 7ed7dede-d15e-46a8-a6bf-bd17e7869a83.mtl

g Body1

v -27.500000 55.105088 0.000000
v -7.500000 55.105088 0.000000
v -7.500000 55.105088 20.000000
v -27.500000 55.105088 20.000000
v 0.000000 102.736486 0.000000
v 0.000000 102.736486 20.000000
v 27.500000 55.105088 0.000000
v 27.500000 55.105088 20.000000
v 7.500000 55.105088 0.000000
v 7.500000 55.105088 20.000000
v 15.000000 0.000000 0.000000
v 15.000000 0.000000 20.000000
v -15.000000 0.000000 0.000000
v -15.000000 0.000000 20.000000
vt 0.000000 0.000000 0.000000
vt 2.000000 0.000000 0.000000
vt 0.000000 2.000000 0.000000
vt 2.000000 2.000000 0.000000
vt -0.000000 0.000000 0.000000
vt 5.500000 0.000000 0.000000
vt -0.000000 2.000000 0.000000
vt 5.500000 2.000000 0.000000
vt 0.000000 0.000000 0.000000
vt 5.500000 0.000000 0.000000
vt 0.000000 2.000000 0.000000
vt 5.500000 2.000000 0.000000
vt 0.000000 0.000000 0.000000
vt 2.000000 0.000000 0.000000
vt 0.000000 2.000000 0.000000
vt 2.000000 2.000000 0.000000
vt 0.000000 0.000000 0.000000
vt 5.561313 0.000000 0.000000
vt 0.000000 2.000000 0.000000
vt 5.561313 2.000000 0.000000
vt 0.000000 0.000000 0.000000
vt 3.000000 0.000000 0.000000
vt 0.000000 2.000000 0.000000
vt 3.000000 2.000000 0.000000
vt 0.000000 0.000000 0.000000
vt 5.561313 0.000000 0.000000
vt 0.000000 2.000000 0.000000
vt 5.561313 2.000000 0.000000
vt -1.500000 -5.136824 0.000000
vt 1.500000 -5.136824 0.000000
vt -0.750000 0.373685 0.000000
vt 0.750000 0.373685 0.000000
vt 0.000000 5.136824 0.000000
vt 2.750000 0.373685 0.000000
vt -2.750000 0.373685 0.000000
vt -1.500000 -5.136824 0.000000
vt 1.500000 -5.136824 0.000000
vt -0.750000 0.373685 0.000000
vt 0.750000 0.373685 0.000000
vt -0.000000 5.136824 0.000000
vt 2.750000 0.373685 0.000000
vt -2.750000 0.373685 0.000000
vn -0.000000 -0.100000 0.000000
vn -0.000000 -0.100000 0.000000
vn -0.000000 -0.100000 0.000000
vn -0.000000 -0.100000 0.000000
vn -0.086603 0.050000 0.000000
vn -0.086603 0.050000 0.000000
vn -0.086603 0.050000 0.000000
vn -0.086603 0.050000 0.000000
vn 0.086603 0.050000 0.000000
vn 0.086603 0.050000 0.000000
vn 0.086603 0.050000 0.000000
vn 0.086603 0.050000 0.000000
vn -0.000000 -0.100000 0.000000
vn -0.000000 -0.100000 0.000000
vn -0.000000 -0.100000 0.000000
vn -0.000000 -0.100000 0.000000
vn 0.099086 0.013486 0.000000
vn 0.099086 0.013486 0.000000
vn 0.099086 0.013486 0.000000
vn 0.099086 0.013486 0.000000
vn 0.000000 -0.100000 0.000000
vn 0.000000 -0.100000 0.000000
vn 0.000000 -0.100000 0.000000
vn 0.000000 -0.100000 0.000000
vn -0.099086 0.013486 0.000000
vn -0.099086 0.013486 0.000000
vn -0.099086 0.013486 0.000000
vn -0.099086 0.013486 0.000000
vn 0.000000 0.000000 0.100000
vn 0.000000 0.000000 0.100000
vn 0.000000 0.000000 0.100000
vn 0.000000 0.000000 0.100000
vn 0.000000 0.000000 0.100000
vn 0.000000 0.000000 0.100000
vn 0.000000 0.000000 0.100000
vn -0.000000 0.000000 -0.100000
vn -0.000000 0.000000 -0.100000
vn -0.000000 0.000000 -0.100000
vn -0.000000 0.000000 -0.100000
vn -0.000000 0.000000 -0.100000
vn -0.000000 0.000000 -0.100000
vn -0.000000 0.000000 -0.100000
usemtl Steel_-_Satin
f 1/1/1 2/2/2 4/3/3
f 4/3/3 2/2/2 3/4/4
f 5/5/5 1/6/6 6/7/7
f 6/7/7 1/6/6 4/8/8
f 7/9/9 5/10/10 8/11/11
f 8/11/11 5/10/10 6/12/12
f 9/13/13 7/14/14 10/15/15
f 10/15/15 7/14/14 8/16/16
f 11/17/17 9/18/18 12/19/19
f 12/19/19 9/18/18 10/20/20
f 13/21/21 11/22/22 14/23/23
f 14/23/23 11/22/22 12/24/24
f 2/25/25 13/26/26 3/27/27
f 3/27/27 13/26/26 14/28/28
f 14/29/29 12/30/30 3/31/31
f 3/31/31 12/30/30 10/32/32
f 3/31/31 10/32/32 6/33/33
f 6/33/33 10/32/32 8/34/34
f 6/33/33 4/35/35 3/31/31
f 11/36/36 13/37/37 9/38/38
f 9/38/38 13/37/37 2/39/39
f 9/38/38 2/39/39 5/40/40
f 5/40/40 2/39/39 1/41/41
f 5/40/40 7/42/42 9/38/38
# 14 vertices
# 42 texture params
# 42 normals
# 24 facets

# 1 groups
